<?xml version="1.0" encoding="UTF-8"?>
<svg width="74px" height="45px" viewBox="0 0 74 45" version="1.1" xmlns="http://www.w3.org/2000/svg" xmlns:xlink="http://www.w3.org/1999/xlink">
    <!-- Generator: Sketch 59 (86127) - https://sketch.com -->
    <title>Arrow</title>
    <desc>Created with Sketch.</desc>
    <g id="Page-1" stroke="none" stroke-width="1" fill="none" fill-rule="evenodd">
        <g id="Artboard" transform="translate(-508.000000, -1176.000000)" fill="#2819A5">
            <g id="Section-/-Card" transform="translate(100.000000, 815.000000)">
                <g id="Card-/-Tournage" transform="translate(364.000000, 95.000000)">
                    <g id="Arrow" transform="translate(44.000000, 266.000000)">
                        <g id="Group-3">
                            <ellipse id="Oval" opacity="0.0437825521" cx="51.489899" cy="22.5" rx="22.489899" ry="22.5"></ellipse>
                            <g id="Arrow" transform="translate(0.000000, 14.754194)" fill-rule="nonzero">
                                <g id="Group">
                                    <path d="M53.6904762,8.63732015 L1.30952381,8.63732015 C0.586142857,8.63732015 0,8.41352015 0,8.13732015 C0,7.86122015 0.586142857,7.63732015 1.30952381,7.63732015 L53.6904762,7.63732015 C54.4138571,7.63732015 55,7.86122015 55,8.13732015 C55,8.41352015 54.4138571,8.63732015 53.6904762,8.63732015 Z" id="Path"></path>
                                    <path d="M46.0775368,16 C45.9354249,16 45.7930908,15.9540703 45.6847568,15.8621168 C45.4677556,15.6783981 45.4677556,15.3804199 45.6847568,15.1967012 L54.180804,7.99995294 L45.6847568,0.803298843 C45.4677556,0.619485997 45.4677556,0.321507774 45.6847568,0.137789046 C45.9015358,-0.0459296819 46.2535378,-0.0459296819 46.4703167,0.137789046 L55.359255,7.6672451 C55.5762562,7.85105795 55.5762562,8.14903617 55.359255,8.3327549 L46.4703167,15.862211 C46.3619828,15.9540703 46.2196487,16 46.0775368,16 Z" id="Path"></path>
                                </g>
                            </g>
                        </g>
                    </g>
                </g>
            </g>
        </g>
    </g>
</svg>