<?xml version="1.0" encoding="UTF-8"?>
<svg width="73px" height="45px" viewBox="0 0 73 45" version="1.1" xmlns="http://www.w3.org/2000/svg" xmlns:xlink="http://www.w3.org/1999/xlink">
    <!-- Generator: Sketch 59 (86127) - https://sketch.com -->
    <title>Group 2</title>
    <desc>Created with Sketch.</desc>
    <g id="Page-1" stroke="none" stroke-width="1" fill="none" fill-rule="evenodd">
        <g id="Artboard" transform="translate(-203.000000, -4637.000000)">
            <g id="Nav-Slider" transform="translate(100.000000, 4637.000000)">
                <g id="Arrow" transform="translate(103.000000, 0.000000)">
                    <g id="Group-3">
                        <g id="Group-2" transform="translate(-0.000000, 0.000000)">
                            <ellipse id="Oval" fill="#D4D2E2" opacity="0.0437825521" cx="50.510101" cy="22.5" rx="22.489899" ry="22.5"></ellipse>
                            <g id="Arrow" transform="translate(0.000000, 14.754194)" fill="#FFFFFF" fill-rule="nonzero">
                                <path d="M53.2664743,8.5389595 L1.2991823,8.5389595 C0.581513997,8.5389595 2.13162821e-14,8.33717261 2.13162821e-14,8.08813983 C2.13162821e-14,7.8391972 0.581513997,7.63732015 1.2991823,7.63732015 L53.2664743,7.63732015 C53.9841426,7.63732015 54.5656566,7.8391972 54.5656566,8.08813983 C54.5656566,8.33717261 53.9841426,8.5389595 53.2664743,8.5389595 Z" id="Path"></path>
                                <path d="M45.0799602,16.2294127 C44.9372283,16.2294127 44.7942733,16.1828245 44.6854668,16.0895526 C44.467519,15.9031996 44.467519,15.6009489 44.6854668,15.4145959 L53.2185761,8.11465863 L44.6854668,0.814816779 C44.467519,0.62836837 44.467519,0.326117647 44.6854668,0.139764706 C44.9031914,-0.0465882353 45.2567289,-0.0465882353 45.4744535,0.139764706 L54.4021678,7.77718033 C54.6201156,7.96362874 54.6201156,8.26587946 54.4021678,8.4522324 L45.4744535,16.089648 C45.365647,16.1828245 45.222692,16.2294127 45.0799602,16.2294127 Z" id="Path"></path>
                            </g>
                        </g>
                    </g>
                </g>
            </g>
        </g>
    </g>
</svg>