<?xml version="1.0" encoding="UTF-8"?>
<svg width="32px" height="23px" viewBox="0 0 32 23" version="1.1" xmlns="http://www.w3.org/2000/svg" xmlns:xlink="http://www.w3.org/1999/xlink">
    <!-- Generator: Sketch 59 (86127) - https://sketch.com -->
    <title>‘‘</title>
    <desc>Created with Sketch.</desc>
    <g id="Page-1" stroke="none" stroke-width="1" fill="none" fill-rule="evenodd">
        <g id="Artboard" transform="translate(-840.000000, -1752.000000)" fill="#2819A5" fill-rule="nonzero">
            <g id="Section-/-P" transform="translate(100.000000, 1434.000000)">
                <g id="Bloc-1">
                    <g id="Txt-/-Exergue" transform="translate(740.000000, 318.000000)">
                        <path d="M12.9007634,0 C5.0610687,2.00414938 0,9.3526971 0,15.9377593 C0,20.3278008 2.97709924,23 6.7480916,23 C10.3206107,23 13,20.3278008 13,17.0829876 C13,13.93361 10.8167939,11.5477178 7.9389313,11.1659751 C7.06812977,11.0729253 6.85768607,10.7984284 6.84770813,10.1655735 L6.84732824,10.1161826 C6.84732824,6.29875519 9.22900763,2.19502075 13,0.190871369 L12.9007634,0 Z M31.9007634,0 L32,0.190871369 C28.2670985,2.17477681 25.8955847,6.21606568 25.8480562,10.0004178 L25.8473282,10.1161826 C25.8473282,10.7842324 26.0458015,11.0705394 26.9389313,11.1659751 C29.8167939,11.5477178 32,13.93361 32,17.0829876 C32,20.3278008 29.3206107,23 25.7480916,23 C21.9770992,23 19,20.3278008 19,15.9377593 C19,9.3526971 24.0610687,2.00414938 31.9007634,0 Z" id="‘‘"></path>
                    </g>
                </g>
            </g>
        </g>
    </g>
</svg>